<?xml version="1.0" standalone="no"?>
<!DOCTYPE svg PUBLIC "-//W3C//DTD SVG 20010904//EN"
 "http://www.w3.org/TR/2001/REC-SVG-20010904/DTD/svg10.dtd">
<svg version="1.0" xmlns="http://www.w3.org/2000/svg"
 width="840.000000pt" height="520.000000pt" viewBox="0 0 840.000000 520.000000"
 preserveAspectRatio="xMidYMid meet">

<g transform="translate(0.000000,520.000000) scale(0.100000,-0.100000)"
fill="#000000" stroke="none">
<path d="M4125 4763 c-22 -9 -317 -161 -655 -339 -338 -177 -813 -426 -1055
-552 -245 -129 -448 -241 -458 -254 -23 -31 -230 -988 -225 -1043 4 -38 178
-859 199 -937 18 -70 46 -89 402 -276 1454 -764 1723 -903 1798 -928 l82 -27
72 21 c45 13 220 99 466 228 217 114 669 351 1004 527 336 176 629 328 652
338 47 20 69 54 79 120 4 24 47 231 96 459 49 228 92 431 95 450 3 21 -5 78
-20 140 -14 58 -63 278 -108 490 -85 398 -98 437 -153 473 -11 8 -499 264
-1082 570 -1159 608 -1093 578 -1189 540z m121 -264 c18 -35 273 -568 569
-1184 295 -616 605 -1261 687 -1433 83 -172 149 -314 147 -316 -2 -2 -150
-127 -329 -278 -179 -151 -335 -280 -347 -286 -16 -9 -217 -12 -761 -12 l-739
0 -43 23 c-48 25 -628 516 -629 532 -1 6 229 508 510 1115 281 608 594 1286
696 1508 103 221 191 401 197 399 6 -2 25 -32 42 -68z m-234 -36 c-5 -10 -303
-655 -662 -1433 -360 -778 -656 -1419 -660 -1423 -7 -8 -559 119 -572 132 -12
12 -178 807 -178 856 0 45 155 793 180 871 10 28 47 50 423 247 226 119 648
340 937 491 289 152 529 276 533 276 4 0 4 -8 -1 -17z m1373 -502 c484 -254
883 -465 887 -469 10 -10 198 -888 198 -925 0 -18 -39 -212 -87 -433 l-86
-402 -261 -41 c-144 -23 -267 -43 -274 -44 -8 -1 -120 221 -296 588 -156 325
-437 912 -626 1305 -189 393 -367 766 -396 827 l-53 113 57 -29 c31 -16 453
-237 937 -490z m650 -2404 c-11 -8 -92 -51 -180 -97 -88 -45 -206 -107 -262
-137 -57 -30 -103 -53 -103 -50 0 2 59 53 130 113 72 60 128 114 126 121 -3 8
7 15 27 18 127 23 245 43 262 44 19 1 19 1 0 -12z m-3457 -56 c62 -16 121 -35
130 -43 43 -36 169 -143 182 -156 8 -8 -52 21 -135 64 -235 123 -311 164 -300
164 6 0 61 -13 123 -29z m2032 -692 c-63 -34 -178 -95 -254 -136 l-140 -74
-60 32 c-159 82 -441 232 -445 235 -2 2 225 4 505 4 l509 0 -115 -61z"/>
</g>
</svg>
